<svg width="14" height="14" viewBox="0 0 14 14" fill="none" xmlns="http://www.w3.org/2000/svg">
<path d="M12.2987 0.0556641H1.68915C1.05257 0.0556641 0.531738 0.576497 0.531738 1.21307V7.00011V12.7871C0.531738 13.4237 1.05257 13.9446 1.68915 13.9446H12.2987C12.9353 13.9446 13.4561 13.4237 13.4561 12.7871V12.247C13.4368 11.5526 13.4175 10.1058 13.4175 9.44995C13.4175 9.08344 13.1475 8.7748 12.8003 8.7748C12.4145 8.7748 12.1637 9.00628 11.9708 9.19918C11.3921 9.72002 10.524 9.81647 9.77171 9.68144C9.42449 9.60428 9.09655 9.50782 8.82649 9.33421C7.99702 8.85196 7.45689 7.94533 7.45689 6.98082C7.45689 6.01631 7.99702 5.12897 8.82649 4.62742C9.11584 4.45381 9.44378 4.35736 9.77171 4.2802C10.5047 4.14517 11.3921 4.24162 11.9708 4.76245C12.183 4.95536 12.4337 5.18684 12.8003 5.18684C13.1475 5.18684 13.4175 4.8782 13.4175 4.51168C13.4175 3.87511 13.4368 2.40906 13.4561 1.71461V1.21307C13.4561 0.576497 12.9353 0.0556641 12.2987 0.0556641Z" fill="#BEADAA"/>
</svg>
