<svg width="17" height="14" viewBox="0 0 17 14" fill="none" xmlns="http://www.w3.org/2000/svg">
<path d="M5.34616 14C11.7613 14 15.2701 8.61332 15.2701 3.94201C15.2701 3.78901 15.2701 3.6367 15.2599 3.48508C15.9425 2.98467 16.5317 2.36507 17 1.65529C16.3634 1.94116 15.6882 2.12864 14.9967 2.21146C15.7248 1.76968 16.2698 1.07484 16.5301 0.25624C15.8455 0.667998 15.0964 0.958185 14.3154 1.11428C13.7895 0.547548 13.094 0.172275 12.3365 0.0465293C11.579 -0.0792164 10.8017 0.0515763 10.1249 0.418668C9.44811 0.785759 8.90957 1.36868 8.59261 2.07723C8.27564 2.78579 8.19793 3.58046 8.37148 4.33829C6.98479 4.26784 5.62822 3.90261 4.38984 3.26632C3.15145 2.63004 2.05893 1.73692 1.1832 0.644941C0.737183 1.42314 0.600576 2.34438 0.801196 3.22108C1.00181 4.09778 1.52458 4.86402 2.26304 5.3638C1.70798 5.34713 1.16503 5.19537 0.68 4.92134C0.68 4.93582 0.68 4.95098 0.68 4.96614C0.68022 5.78229 0.958978 6.57323 1.46899 7.20483C1.97901 7.83642 2.68888 8.26976 3.4782 8.43137C2.96471 8.5733 2.42595 8.59405 1.90332 8.49202C2.1262 9.19442 2.56011 9.80865 3.14437 10.2488C3.72863 10.689 4.43402 10.933 5.16188 10.9469C3.92682 11.9307 2.40112 12.4647 0.83028 12.4631C0.552774 12.4626 0.275539 12.4455 0 12.4121C1.59503 13.4495 3.45094 13.9998 5.34616 13.9972" fill="#BEADAA"/>
</svg>
